<?xml version="1.0" encoding="UTF-8"?>
<svg width="400px" height="119px" viewBox="0 0 400 119" version="1.1" xmlns="http://www.w3.org/2000/svg" xmlns:xlink="http://www.w3.org/1999/xlink">
    <!-- Generator: Sketch 47.1 (45422) - http://www.bohemiancoding.com/sketch -->
    <title>Logo</title>
    <desc>Created with Sketch.</desc>
    <defs>
        <linearGradient x1="50.0288918%" y1="100.198378%" x2="50.0288918%" y2="-0.0174041298%" id="linearGradient-1">
            <stop stop-color="#8DC63F" offset="0%"></stop>
            <stop stop-color="#009444" offset="100%"></stop>
        </linearGradient>
    </defs>
    <g id="Page-1" stroke="none" stroke-width="1" fill="none" fill-rule="evenodd">
        <g id="Artboard" transform="translate(-440.000000, -194.000000)" fill-rule="nonzero">
            <g id="Content" transform="translate(440.000000, 194.000000)">
                <g id="Logo">
                    <g id="Group" transform="translate(0.000000, 38.666667)" fill="#4C4C4D">
                        <path d="M40.5990017,57.0666667 C35.7404326,62.4 29.2845258,65.6666667 18.4359401,65.6666667 C17.437604,65.6666667 16.2396007,65.6666667 14.9084859,65.5333333 L12.046589,80.2 L0.332778702,80.2 L11.9800333,20.2 L23.7603993,20.2 L22.4292845,26.9333333 C26.422629,22.1333333 31.8801997,18.6666667 38.1364393,18.6666667 C43.327787,18.6666667 49.8502496,21.0666667 49.8502496,31.8666667 C49.8502496,38.9333333 47.3211314,49.6666667 40.5990017,57.0666667 Z M35.8735441,40.1333333 C36.4725458,37.1333333 36.7387687,34.7333333 36.7387687,32.8 C36.7387687,28.2666667 35.1414309,26.5333333 31.9467554,26.5333333 C28.0199667,26.5333333 23.6272879,29.3333333 21.1647255,33.5333333 L16.5058236,57.4666667 C17.8369384,57.8 19.234609,57.9333333 20.6322795,57.9333333 C30.4159734,57.8666667 34.0099834,49.8 35.8735441,40.1333333 Z" id="Shape"></path>
                        <path d="M51.5806988,64.2 L60.0998336,20.2 L71.8801997,20.2 L63.3610649,64.2 L51.5806988,64.2 Z M61.4975042,13.2 L63.2945092,4 L75.0748752,4 L73.2778702,13.2 L61.4975042,13.2 Z" id="Shape"></path>
                        <path d="M101.896839,64.2 C101.896839,61.1333333 100.965058,58.3333333 99.234609,56.0666667 L93.7104825,48.8666667 L79.3344426,64.2 L67.8868552,64.2 L88.5856905,42.2 L81.0648918,32.4 C78.6688852,29.2666667 77.5374376,25.2 77.5374376,20.9333333 C77.5374376,20.7333333 77.5374376,20.4666667 77.5374376,20.2666667 L89.3178037,20.2666667 C89.2512479,23.2666667 90.1830283,26 91.9134775,28.1333333 L97.2379368,35.1333333 L111.214642,20.2666667 L122.66223,20.2666667 L102.362729,41.8 L110.083195,51.9333333 C112.545757,55.1333333 113.677205,59.2 113.677205,63.4666667 C113.677205,63.7333333 113.677205,63.9333333 113.677205,64.2 L101.896839,64.2 L101.896839,64.2 Z" id="Shape"></path>
                        <path d="M162.728785,29.3333333 C162.728785,35.2 157.537438,41.2 148.153078,44 C142.362729,45.7333333 135.77371,45.9333333 130.382696,45.9333333 C129.983361,45.9333333 129.650582,45.9333333 129.251248,45.9333333 C129.184692,46.5333333 129.184692,47.1333333 129.184692,47.6666667 C129.184692,56.7333333 135.174709,57.8666667 139.633943,57.8666667 C144.958403,57.8666667 150.815308,56.2 156.539101,54.2666667 L154.808652,63.1333333 C149.151414,65.0666667 143.294509,65.6 138.702163,65.6 C122.129784,65.6 117.33777,57.4 117.33777,48.2666667 C117.33777,46.2666667 117.603993,44.2 117.936772,42.1333333 C120.998336,26.2666667 132.911814,18.2666667 146.622296,18.2666667 C157.138103,18.2666667 162.728785,23.3333333 162.728785,29.3333333 Z M150.881864,30.3333333 C150.881864,28.4 149.550749,26.0666667 145.15807,26.0666667 C141.896839,26.0666667 134.309484,27.4 130.78203,38.1333333 C131.114809,38.1333333 131.514143,38.1333333 131.846922,38.1333333 C137.97005,38.1333333 150.881864,37.7333333 150.881864,30.3333333 Z" id="Shape"></path>
                        <polygon id="Shape" points="163.194676 64.2 175.574043 0.333333333 187.354409 0.333333333 174.975042 64.2"></polygon>
                        <path d="M199.733777,65.6666667 C196.605657,65.6666667 188.818636,65.6666667 184.492512,63.5333333 L186.222962,54.6 C191.613977,57.2666667 198.003328,57.9333333 202.995008,57.9333333 C209.184692,57.9333333 211.314476,54.3333333 211.314476,51.8666667 C211.314476,49.3333333 208.851913,48.3333333 206.855241,47.6 L197.870216,44.5333333 C193.410982,42.9333333 190.415973,39.4 190.415973,34.6666667 C190.415973,25.1333333 201.397671,18.7333333 213.111481,18.7333333 C216.572379,18.7333333 220.898502,19.3333333 224.958403,20.4 L223.361065,28.8 C219.234609,27.7333333 215.174709,26.5333333 211.114809,26.5333333 C204.392679,26.5333333 202.728785,29.2666667 202.728785,31.0666667 C202.728785,33.1333333 205.124792,33.9333333 207.121464,34.6666667 L216.106489,37.8 C220.299501,39.2666667 223.826955,42.2666667 223.826955,47.6 C223.693844,58.4 212.978369,65.6666667 199.733777,65.6666667 Z" id="Shape"></path>
                        <path d="M247.321131,53.9333333 C247.321131,56.2666667 248.319468,57.8666667 252.046589,57.8666667 C253.44426,57.8666667 256.106489,57.5333333 257.903494,57.2666667 L256.372712,65.0666667 C253.510815,65.4 250.515807,65.6666667 247.787022,65.6666667 C237.803661,65.6666667 235.141431,62.4666667 235.141431,57 C235.141431,54.5333333 235.673877,51.6666667 236.272879,48.4 L240.332779,27.6 L232.545757,27.6 L233.876872,20.6 L241.663894,20.6 L243.660566,10.2 L255.574043,10.2 L253.577371,20.6 L265.024958,20.6 L263.693844,27.6 L252.246256,27.6 L247.920133,49.9333333 C247.587354,51.3333333 247.321131,52.7333333 247.321131,53.9333333 Z" id="Shape"></path>
                        <path d="M307.8203,29.0666667 C307.8203,31.4666667 307.287854,34.0666667 306.821963,36.6666667 L301.497504,64.2 L289.650582,64.2 L290.515807,59.8666667 C285.856905,63.2666667 280.865225,65.7333333 275.47421,65.7333333 C268.618968,65.7333333 264.292845,61.6666667 264.292845,55.6 C264.292845,52 265.62396,45.8666667 273.27787,41.8 C279.53411,38.5333333 287.054908,37.8666667 294.84193,37.7333333 L295.374376,34.8666667 C295.640599,33.6 295.840266,32.3333333 295.840266,31.2 C295.840266,28.5333333 294.509151,26.5333333 289.118136,26.5333333 C283.993344,26.5333333 278.469218,28.3333333 273.27787,30.6 L274.941764,22 C280.532446,19.5333333 286.389351,18.7333333 291.980033,18.7333333 C304.825291,18.6666667 307.8203,23.2666667 307.8203,29.0666667 Z M293.510815,44 C289.051581,44.0666667 284.725458,44.3333333 281.064892,46.3333333 C277.004992,48.8 276.206323,51.7333333 276.206323,53.6 C276.206323,56.2 278.003328,57.8666667 281.530782,57.8666667 C284.792013,57.8666667 288.186356,56.4 291.514143,54.2 L293.510815,44 Z" id="Shape"></path>
                        <path d="M342.49584,18.6666667 C346.821963,18.6666667 351.747088,19.2666667 356.40599,20.4 L354.808652,28.6 C350.016639,27.5333333 345.291181,26.4666667 341.031614,26.4666667 C330.382696,26.4666667 326.189684,34.3333333 324.658902,42.1333333 C324.326123,43.8 324.126456,45.5333333 324.126456,47.2 C324.126456,52.9333333 326.589018,57.8 334.708819,57.8 C339.168053,57.8 344.492512,56.4666667 349.617304,55.1333333 L347.953411,63.6 C342.828619,64.9333333 337.637271,65.6 333.178037,65.6 C318.735441,65.6 312.279534,58.4 312.279534,47.9333333 C312.34609,38 318.336106,18.6666667 342.49584,18.6666667 Z" id="Shape"></path>
                        <path d="M394.875208,65.6666667 C387.420965,64.9333333 381.164725,61 378.036606,54.6 L374.242928,46.7333333 L370.249584,50.9333333 L367.65391,64.1333333 L355.873544,64.1333333 L368.252912,0.266666667 L380.033278,0.266666667 L373.111481,35.8666667 L388.153078,20.2 L399.600666,20.2 L381.56406,39.0666667 L387.287854,51 C389.151414,54.8 392.545757,57.4666667 397.071547,57.8666667 L394.875208,65.6666667 Z" id="Shape"></path>
                    </g>
                    <path d="M267.221298,29.2 C266.222962,19.4 256.905158,19.2 253.976705,0.266666667 C231.214642,14.9333333 226.755408,33.1333333 244.0599,45.0666667 C244.0599,45.0666667 239.267887,35 240.46589,29.3333333 C241.597338,23.7333333 244.126456,21 249.916805,16.3333333 C251.514143,21.4666667 253.777038,24.9333333 255.707155,27.4666667 C258.43594,31 259.900166,32.1333333 260.232945,35.4 C260.698835,40.0666667 255.574043,45.4666667 255.574043,45.4666667 C257.304493,45.1333333 268.219634,39.0666667 267.221298,29.2 Z" id="Shape" fill="url(#linearGradient-1)"></path>
                </g>
            </g>
        </g>
    </g>
</svg>